<svg viewBox="0 0 19 19" fill="none" xmlns="http://www.w3.org/2000/svg">
<path d="M3.38507 8.84888C3.17602 9.0582 3.05859 9.34193 3.05859 9.63777C3.05859 9.9336 3.17602 10.2173 3.38507 10.4267L7.59444 14.6383C7.80387 14.8477 8.08791 14.9653 8.38407 14.9653C8.68024 14.9653 8.96428 14.8477 9.1737 14.6383C9.38313 14.4288 9.50078 14.1448 9.50078 13.8486C9.50078 13.5525 9.38313 13.2684 9.1737 13.059L6.86956 10.7541L15.4543 10.7541C15.7503 10.7541 16.0343 10.6365 16.2436 10.4271C16.453 10.2178 16.5706 9.93384 16.5706 9.63777C16.5706 9.34169 16.453 9.05775 16.2436 8.84839C16.0343 8.63904 15.7503 8.52142 15.4543 8.52142L6.86956 8.52142L9.1737 6.21728C9.2774 6.11359 9.35965 5.99048 9.41577 5.855C9.47189 5.71951 9.50078 5.5743 9.50078 5.42765C9.50078 5.281 9.47189 5.13579 9.41577 5.00031C9.35965 4.86482 9.2774 4.74172 9.1737 4.63802C9.07001 4.53433 8.9469 4.45207 8.81142 4.39595C8.67593 4.33983 8.53072 4.31095 8.38407 4.31095C8.23743 4.31095 8.09221 4.33983 7.95673 4.39595C7.82124 4.45207 7.69814 4.53433 7.59444 4.63802L3.38507 8.84888Z" fill="white"/>
</svg>
