<svg viewBox="0 0 19 26" fill="none" xmlns="http://www.w3.org/2000/svg">
<path d="M15.042 12.606C14.6462 11.0303 13.8545 11.0303 13.8545 11.0303M13.8545 11.0303C13.4587 11.4242 13.4141 11.7204 13.0589 11.9326C12.7037 12.1447 12.2903 12.2401 11.8776 12.205C11.4649 12.2398 11.0516 12.1443 10.6966 11.932C10.3416 11.7197 10.0628 11.4014 9.90001 11.0224C9.73706 11.4013 9.45826 11.7194 9.10324 11.9315C8.74823 12.1437 8.33505 12.2391 7.92243 12.2042C7.50981 12.2391 7.09664 12.1437 6.74162 11.9315C6.3866 11.7194 6.1078 11.4013 5.94485 11.0224C5.83871 11.2763 5.67707 11.5035 5.47166 11.6875C5.26625 11.8715 5.02224 12.0076 4.75735 12.086M13.8545 11.0303C10.8405 10.5302 8.85872 8.95595 8.70866 7.09088C8.53133 4.88686 9.4908 3.64916 11.8776 4.3333C11.7081 3.62402 10.8703 2.48164 8.71103 2.36518C6.55181 2.24872 4.74169 4.72421 4.35449 5.51516C3.63936 6.976 3.44471 8.21054 3.56283 10.6363" stroke="white" stroke-linecap="round" stroke-linejoin="round"/>
<path d="M3.0632 9.16663L4.07387 11.3181H4.07064L4.4086 12.0307L4.40939 12.0324L4.54361 12.3181H4.54491L6.27773 15.9718L6.41324 16.2575H6.72949H12.667H12.9604L13.1035 16.0014L15.1498 12.3385C15.1868 12.3531 15.2206 12.375 15.2491 12.4033L15.6018 12.0489L15.2491 12.4033C15.3035 12.4575 15.3337 12.5304 15.3337 12.606C15.3337 12.6413 15.3234 12.6963 15.2908 12.7756L13.2636 16.2709L13.2636 16.2709L13.2599 16.2775C13.0756 16.6066 12.7163 16.8333 12.3107 16.8333H6.41283H6.11843L5.97561 17.0907L5.26311 18.375L5.23134 18.4322L5.21539 18.4957L5.19164 18.5903L5.17658 18.6502V18.7121C5.17658 18.8977 5.25069 19.0752 5.38184 19.2058C5.51291 19.3362 5.69016 19.409 5.87449 19.409H14.8077C14.8133 19.417 14.8189 19.4252 14.8245 19.4335C14.9069 19.5565 14.9378 19.651 14.9378 19.6969C14.9378 19.7429 14.9069 19.8374 14.8245 19.9603C14.8189 19.9687 14.8133 19.9769 14.8077 19.9848H5.54199C5.2539 19.9848 4.97809 19.8709 4.77511 19.6689C4.57221 19.4669 4.45866 19.1936 4.45866 18.909C4.45866 18.7205 4.50719 18.5427 4.58732 18.3927L5.66199 16.4659L5.78779 16.2404L5.67669 16.0073L2.82669 10.0273L2.69091 9.74238H2.37533H1.29199V9.16663H3.0632ZM13.4587 21.7727C13.7467 21.7727 14.0226 21.8866 14.2255 22.0886C14.4284 22.2905 14.542 22.5639 14.542 22.8484C14.542 23.133 14.4284 23.4063 14.2255 23.6083C14.0226 23.8103 13.7467 23.9242 13.4587 23.9242C13.1706 23.9242 12.8948 23.8103 12.6918 23.6083C12.4889 23.4063 12.3753 23.133 12.3753 22.8484C12.3753 22.2523 12.8538 21.7727 13.4587 21.7727ZM5.54199 21.7727C5.83008 21.7727 6.10589 21.8866 6.30887 22.0886C6.51177 22.2905 6.62533 22.5639 6.62533 22.8484C6.62533 23.133 6.51177 23.4063 6.30887 23.6083C6.10589 23.8103 5.83008 23.9242 5.54199 23.9242C5.2539 23.9242 4.97809 23.8103 4.77511 23.6083C4.57221 23.4063 4.45866 23.133 4.45866 22.8484C4.45866 22.2523 4.93712 21.7727 5.54199 21.7727Z" fill="white" stroke="white"/>
</svg>

