<svg xmlns="http://www.w3.org/2000/svg"  viewBox="0 0 21 21" fill="none">
  <path d="M10.5875 16.2312L10.5 16.3187L10.4038 16.2312C6.2475 12.46 3.5 9.96625 3.5 7.4375C3.5 5.6875 4.8125 4.375 6.5625 4.375C7.91 4.375 9.2225 5.25 9.68625 6.44H11.3138C11.7775 5.25 13.09 4.375 14.4375 4.375C16.1875 4.375 17.5 5.6875 17.5 7.4375C17.5 9.96625 14.7525 12.46 10.5875 16.2312ZM14.4375 2.625C12.915 2.625 11.4537 3.33375 10.5 4.445C9.54625 3.33375 8.085 2.625 6.5625 2.625C3.8675 2.625 1.75 4.73375 1.75 7.4375C1.75 10.7362 4.725 13.44 9.23125 17.5262L10.5 18.6812L11.7688 17.5262C16.275 13.44 19.25 10.7362 19.25 7.4375C19.25 4.73375 17.1325 2.625 14.4375 2.625Z" fill="black"/>
</svg>