<svg xmlns="http://www.w3.org/2000/svg" width="23" height="23" viewBox="0 0 23 23" fill="none">
  <path d="M17.3154 10.8948C16.9408 9.40525 16.1915 9.40525 16.1915 9.40525M16.1915 9.40525C15.8169 9.77763 15.7747 10.0576 15.4385 10.2582C15.1024 10.4587 14.7112 10.5489 14.3205 10.5157C13.9299 10.5486 13.5388 10.4583 13.2028 10.2576C12.8668 10.057 12.603 9.75608 12.4489 9.3978C12.2947 9.75595 12.0308 10.0567 11.6948 10.2572C11.3588 10.4578 10.9677 10.5479 10.5772 10.515C10.1867 10.5479 9.79566 10.4578 9.45966 10.2572C9.12366 10.0567 8.8598 9.75595 8.70557 9.3978C8.60512 9.63784 8.45214 9.85263 8.25773 10.0265C8.06332 10.2005 7.83238 10.3291 7.58168 10.4032M16.1915 9.40525C13.339 8.93253 11.4634 7.44444 11.3213 5.68143C11.1535 3.59802 12.0616 2.42805 14.3205 3.07475C14.1601 2.40428 13.3672 1.32441 11.3236 1.21433C9.28002 1.10424 7.56686 3.44427 7.2004 4.19193C6.52358 5.57283 6.33936 6.73982 6.45114 9.03288" stroke="black" stroke-linecap="round" stroke-linejoin="round"/>
  <path d="M6.18885 7.76318L7.12644 9.66845H7.12302L7.48113 10.3892L7.48197 10.3909L7.61854 10.6684H7.61986L9.28629 14.0225L9.42418 14.3H9.73407H15.4681H15.7549L15.8997 14.0526L17.8688 10.6881C17.9031 10.7012 17.9335 10.7204 17.958 10.7437C18.005 10.7883 18.0263 10.8433 18.0263 10.8948C18.0263 10.916 18.0195 10.9578 17.9907 11.0255L16.0347 14.2449L16.0347 14.2449L16.0308 14.2515C15.8609 14.541 15.5208 14.7527 15.1241 14.7527H9.42826H9.14054L8.99597 15.0014L8.30788 16.1853L8.27386 16.2438L8.25663 16.3093L8.23369 16.3965L8.21723 16.459V16.5237C8.21723 16.713 8.29662 16.889 8.42884 17.0146L8.77321 16.6521L8.42884 17.0146C8.56019 17.1394 8.7331 17.2053 8.90837 17.2053H17.5335C17.5369 17.2099 17.5403 17.2147 17.5436 17.2195C17.6227 17.3322 17.644 17.408 17.644 17.4316C17.644 17.4552 17.6227 17.531 17.5436 17.6437C17.5403 17.6485 17.5369 17.6533 17.5335 17.6579H8.58726C8.30629 17.6579 8.04166 17.5516 7.8504 17.37C7.66002 17.1891 7.55817 16.9494 7.55817 16.7053C7.55817 16.5427 7.60195 16.3882 7.67551 16.2566L8.71314 14.4808L8.84962 14.2472L8.72878 14.0052L5.97643 8.49247L5.8383 8.21582H5.52909H4.5V7.76318H6.18885ZM17.4156 17.0661C17.4153 17.0658 17.4154 17.0659 17.4158 17.0663L17.4156 17.0661ZM17.4156 17.7971L17.4158 17.7969L17.4156 17.7971ZM16.2327 19.3842C16.5137 19.3842 16.7783 19.4905 16.9695 19.6722C17.1599 19.8531 17.2618 20.0927 17.2618 20.3369C17.2618 20.581 17.1599 20.8207 16.9695 21.0015C16.7783 21.1832 16.5137 21.2895 16.2327 21.2895C15.9517 21.2895 15.6871 21.1832 15.4958 21.0015C15.3055 20.8207 15.2036 20.581 15.2036 20.3369C15.2036 19.8307 15.6357 19.3842 16.2327 19.3842ZM9.32411 19.6722L9.66848 19.3097L9.32411 19.6722C9.51449 19.8531 9.61634 20.0927 9.61634 20.3369C9.61634 20.581 9.51449 20.8207 9.32411 21.0015C9.13286 21.1832 8.86823 21.2895 8.58726 21.2895C8.30629 21.2895 8.04166 21.1832 7.8504 21.0015C7.66002 20.8207 7.55817 20.581 7.55817 20.3369C7.55817 19.8307 7.99028 19.3842 8.58726 19.3842C8.86823 19.3842 9.13285 19.4905 9.32411 19.6722Z" fill="black" stroke="black"/>
</svg>