<svg  viewBox="0 0 19 19" fill="none" xmlns="http://www.w3.org/2000/svg">
<path d="M18.2365 8.38282L14.5369 11.6116L15.6452 16.4186C15.7038 16.6699 15.6871 16.9329 15.5971 17.1747C15.507 17.4166 15.3477 17.6265 15.139 17.7783C14.9304 17.9301 14.6816 18.017 14.4237 18.0282C14.1659 18.0393 13.9106 17.9742 13.6895 17.841L9.49693 15.298L5.31334 17.841C5.09232 17.9742 4.83695 18.0393 4.57914 18.0282C4.32133 18.017 4.07253 17.9301 3.86384 17.7783C3.65516 17.6265 3.49584 17.4166 3.40582 17.1747C3.3158 16.9329 3.29907 16.6699 3.35771 16.4186L4.46431 11.6165L0.763885 8.38282C0.568166 8.21401 0.42664 7.99119 0.357056 7.74227C0.287472 7.49336 0.292927 7.22944 0.372737 6.98362C0.452547 6.73779 0.60316 6.521 0.805687 6.36043C1.00821 6.19986 1.25364 6.10266 1.51119 6.08102L6.38877 5.65856L8.29271 1.11731C8.39214 0.879019 8.55985 0.675477 8.77472 0.532307C8.98959 0.389138 9.24201 0.312744 9.50021 0.312744C9.75841 0.312744 10.0108 0.389138 10.2257 0.532307C10.4406 0.675477 10.6083 0.879019 10.7077 1.11731L12.6174 5.65856L17.4933 6.08102C17.7509 6.10266 17.9963 6.19986 18.1988 6.36043C18.4014 6.521 18.552 6.73779 18.6318 6.98362C18.7116 7.22944 18.7171 7.49336 18.6475 7.74227C18.5779 7.99119 18.4364 8.21401 18.2406 8.38282H18.2365Z" fill="#FE754C"/>
</svg>
