<svg width="16" height="18" viewBox="0 0 16 18" fill="none" xmlns="http://www.w3.org/2000/svg">
<g clip-path="url(#clip0_380_4969)">
<path d="M2.75321 14.663C2.39021 14.663 2.07886 14.6177 1.81915 14.5271C1.55943 14.4395 1.33514 14.3036 1.14626 14.1195C1.02821 14.0027 0.936718 13.88 0.871795 13.7514C0.809817 13.6229 0.764071 13.4972 0.734558 13.3745C0.707998 13.2489 0.691767 13.1305 0.685864 13.0195C0.682913 12.9085 0.681438 12.8135 0.681438 12.7347V12.6689C0.684389 12.5608 0.68734 12.4059 0.690291 12.2043C0.696193 11.9998 0.699145 11.7602 0.699145 11.4856C0.699145 11.2109 0.697669 10.9085 0.694718 10.5784C0.691766 10.2482 0.682913 9.91954 0.668157 9.5923C0.656352 9.26218 0.637169 8.94516 0.610607 8.64125C0.586997 8.33741 0.553058 8.07303 0.508789 7.84803L1.83243 7.44922C1.87079 7.64203 1.90178 7.86991 1.92539 8.13293C1.949 8.39292 1.96818 8.66609 1.98294 8.95243C2.00065 9.23878 2.01245 9.52656 2.01835 9.81579C2.02721 10.1051 2.03311 10.3739 2.03606 10.6222V10.7099C2.03606 10.8998 2.02868 11.0839 2.01393 11.2621C1.99327 11.4724 1.97704 11.677 1.96523 11.8756C1.95933 11.972 1.95638 12.0656 1.95638 12.1561C1.95638 12.2584 1.96081 12.3592 1.96966 12.4585C1.98146 12.6484 2.02131 12.8325 2.08918 13.0107C2.11574 13.078 2.14821 13.1291 2.18657 13.1641C2.2279 13.1992 2.27511 13.2255 2.32824 13.243C2.38136 13.2576 2.43891 13.2664 2.50089 13.2693C2.56581 13.2722 2.63664 13.2737 2.71337 13.2737H2.75321C2.84766 13.2737 2.93767 13.2927 3.02326 13.3307C3.10884 13.3686 3.18262 13.4198 3.2446 13.484C3.30953 13.5454 3.36118 13.6185 3.39954 13.7032C3.4379 13.788 3.45709 13.877 3.45709 13.9705C3.45709 14.067 3.4379 14.1575 3.39954 14.2423C3.36118 14.327 3.30953 14.4 3.2446 14.4614C3.18262 14.5257 3.10884 14.5753 3.02326 14.6104C2.93767 14.6455 2.84766 14.663 2.75321 14.663ZM2.05118 13.9705C2.05118 13.8741 2.06889 13.785 2.1043 13.7032C2.13971 13.6214 2.18841 13.5498 2.25038 13.4884C2.31236 13.4271 2.38614 13.3789 2.47173 13.3438C2.55436 13.3058 2.64438 13.284 2.74177 13.278C2.9395 13.278 3.11067 13.2401 3.25529 13.1641C3.40285 13.0882 3.5327 12.9888 3.64485 12.8661C3.757 12.7434 3.85734 12.6061 3.94588 12.4542C4.03442 12.3022 4.11853 12.1503 4.19821 11.9983V12.0027C4.27494 11.845 4.3561 11.6887 4.44169 11.5338C4.53022 11.379 4.62614 11.2358 4.72944 11.1043C4.88881 10.9203 5.06735 10.7785 5.26509 10.6792C5.46282 10.5769 5.67384 10.5258 5.89813 10.5258C6.16374 10.5258 6.40427 10.5799 6.61971 10.6879C6.83811 10.7961 7.03584 10.9509 7.21291 11.1525C7.34569 11.3103 7.45347 11.4914 7.53609 11.6959C7.61871 11.8975 7.67333 12.1123 7.69987 12.3402V12.3315C7.71755 12.4454 7.72642 12.5754 7.72642 12.7215C7.72642 12.8792 7.71166 13.0341 7.68213 13.186C7.65558 13.3351 7.61726 13.4768 7.56707 13.6111C7.46969 13.8566 7.32947 14.0626 7.14651 14.2291C6.96649 14.3928 6.77022 14.5052 6.55774 14.5666C6.48691 14.587 6.41608 14.6002 6.34525 14.606C6.27737 14.6148 6.20506 14.6191 6.12833 14.6191C5.99553 14.6191 5.85386 14.6031 5.70335 14.571C5.55579 14.5388 5.4097 14.495 5.26509 14.4395C5.20606 14.4132 5.13966 14.3825 5.06588 14.3475C4.9921 14.3095 4.91389 14.2686 4.83126 14.2247C4.75157 14.1809 4.67189 14.1356 4.5922 14.0888C4.51252 14.0421 4.43874 13.9968 4.37086 13.953C4.25281 14.0611 4.13476 14.159 4.01671 14.2467C3.89866 14.3343 3.7747 14.4088 3.64485 14.4702C3.515 14.5315 3.37629 14.5782 3.22873 14.6104C3.08116 14.6455 2.92032 14.663 2.74619 14.663C2.64881 14.663 2.55879 14.644 2.47616 14.606C2.39057 14.571 2.31679 14.5227 2.25481 14.4614C2.18988 14.4 2.13971 14.327 2.1043 14.2423C2.06889 14.1575 2.05118 14.067 2.05118 13.9705ZM5.18983 12.8179C5.28132 12.8764 5.38904 12.9333 5.51299 12.9888C5.6399 13.0443 5.76532 13.094 5.88928 13.1379C6.01323 13.1816 6.12686 13.2182 6.23015 13.2474C6.33639 13.2737 6.41608 13.2868 6.4692 13.2868C6.481 13.2868 6.49281 13.2868 6.50462 13.2868C6.51937 13.284 6.53413 13.281 6.54889 13.278C6.5843 13.2693 6.61971 13.2241 6.65513 13.1422C6.68169 13.0808 6.69497 12.9991 6.69497 12.8968C6.69497 12.8705 6.6935 12.8427 6.69054 12.8135C6.69054 12.72 6.66398 12.6177 6.61086 12.5067C6.55774 12.3928 6.48838 12.2876 6.4028 12.1912C6.31721 12.0918 6.21834 12.0101 6.10619 11.9458C5.997 11.8786 5.88485 11.845 5.76975 11.845C5.72843 11.845 5.67531 11.9034 5.61038 12.0203C5.54546 12.1371 5.45102 12.311 5.32707 12.5418V12.5374L5.18983 12.8179ZM7.91136 16.4029C8.32744 16.3211 8.70373 16.2174 9.04016 16.0917C9.37958 15.969 9.67616 15.8302 9.92998 15.6754C10.1868 15.5234 10.3978 15.3613 10.5631 15.1889C10.7283 15.0165 10.8463 14.8412 10.9172 14.663C10.7903 14.663 10.6619 14.6601 10.532 14.6542C10.4022 14.6513 10.2915 14.6469 10.2 14.6411C9.85769 14.6119 9.54489 14.5359 9.26155 14.4132C8.9782 14.2934 8.75246 14.1297 8.58424 13.9223C8.46024 13.7646 8.37173 13.5936 8.31864 13.4095C8.26846 13.2255 8.24336 13.0312 8.24336 12.8267C8.24336 12.6689 8.25813 12.5111 8.28766 12.3534C8.31711 12.1927 8.35842 12.0378 8.41158 11.8888C8.46467 11.7369 8.52671 11.5937 8.59747 11.4593C8.67129 11.3249 8.74947 11.2022 8.83217 11.0911C9.00918 10.872 9.20249 10.7069 9.41202 10.5959C9.62453 10.482 9.84736 10.425 10.0805 10.425C10.5793 10.425 11.0293 10.6412 11.4307 11.0736C11.5546 11.2109 11.6668 11.3629 11.7671 11.5294C11.8675 11.6959 11.956 11.8742 12.0327 12.0641C12.1095 12.2511 12.1714 12.4468 12.2187 12.6514C12.2689 12.8559 12.3028 13.0648 12.3205 13.278H12.4046C12.502 13.278 12.5935 13.2956 12.6791 13.3307C12.7647 13.3657 12.8384 13.4154 12.9005 13.4797C12.9653 13.5411 13.017 13.6141 13.0554 13.6988C13.0938 13.7836 13.1129 13.8756 13.1129 13.9749C13.1129 14.0684 13.0938 14.1575 13.0554 14.2423C13.017 14.3241 12.9653 14.3956 12.9005 14.457C12.8384 14.5213 12.7647 14.571 12.6791 14.606C12.5935 14.644 12.502 14.663 12.4046 14.663H12.2098C12.0947 15.0925 11.9103 15.481 11.6565 15.8287C11.4056 16.1764 11.1046 16.4803 10.7534 16.7403C10.4052 17.0004 10.0156 17.2152 9.58467 17.3846C9.15675 17.5541 8.70817 17.6753 8.23893 17.7483L7.91136 16.4029ZM10.0805 11.8143C10.0156 11.8143 9.94329 11.8435 9.86358 11.9019C9.78686 11.9574 9.71457 12.0291 9.64671 12.1167C9.57878 12.2043 9.52126 12.3022 9.47406 12.4103C9.42977 12.5184 9.40766 12.6236 9.40766 12.7259C9.40766 12.8252 9.43566 12.907 9.49173 12.9713C9.5478 13.0356 9.61864 13.0882 9.70424 13.1291C9.79275 13.167 9.88867 13.1963 9.99195 13.2167C10.0953 13.2343 10.1956 13.2474 10.293 13.2562C10.3461 13.262 10.4037 13.2664 10.4656 13.2693C10.5306 13.2693 10.597 13.2693 10.6649 13.2693C10.7327 13.2693 10.7991 13.2708 10.8641 13.2737C10.9319 13.2737 10.9939 13.2752 11.05 13.278C11.0293 13.1349 10.9969 13.0005 10.9526 12.8749C10.9083 12.7492 10.8582 12.6324 10.8021 12.5243C10.749 12.4161 10.6899 12.3197 10.625 12.235C10.5631 12.1474 10.5026 12.0714 10.4435 12.0071C10.4229 11.9867 10.3963 11.9648 10.3638 11.9414C10.3343 11.918 10.3034 11.8975 10.2709 11.88C10.2384 11.8596 10.2045 11.8435 10.169 11.8318C10.1366 11.8201 10.1071 11.8143 10.0805 11.8143ZM15.9735 8.94365L15.1236 9.78951L14.2824 8.95683L13.4502 9.78072L12.5914 8.93494L13.4413 8.08908L14.2824 8.92176L15.1147 8.09787L15.9735 8.94365ZM11.5422 13.9705C11.5422 13.8741 11.5614 13.7836 11.5997 13.6988C11.6351 13.6141 11.6839 13.5411 11.7458 13.4797C11.8078 13.4154 11.8816 13.3657 11.9672 13.3307C12.0527 13.2956 12.1442 13.278 12.2417 13.278H12.9455C13.0783 13.278 13.2245 13.2722 13.3838 13.2606C13.5431 13.2489 13.6966 13.2299 13.8442 13.2036C13.9917 13.1773 14.1245 13.1422 14.2426 13.0984C14.3636 13.0516 14.4522 12.9932 14.5082 12.9231C14.5407 12.8734 14.5569 12.8062 14.5569 12.7215C14.5569 12.5958 14.5259 12.4468 14.4639 12.2744C14.4049 12.1021 14.3341 11.9268 14.2514 11.7486C14.1688 11.5704 14.0832 11.3994 13.9947 11.2358C13.9091 11.0722 13.8397 10.9363 13.7866 10.8282L15.0483 10.2147C15.1398 10.3724 15.2283 10.5594 15.3139 10.7756C15.3995 10.9889 15.4762 11.2095 15.5441 11.4374C15.612 11.6624 15.6666 11.8844 15.7079 12.1035C15.7492 12.3197 15.7699 12.5082 15.7699 12.6689C15.7699 12.964 15.7167 13.2343 15.6105 13.4797C15.4866 13.7543 15.3169 13.9822 15.1014 14.1634C14.886 14.3416 14.6277 14.473 14.3267 14.5578C14.2382 14.5812 14.1275 14.6002 13.9947 14.6148C13.8619 14.6294 13.7276 14.6396 13.5919 14.6455C13.4561 14.6542 13.3277 14.6586 13.2067 14.6586C13.0857 14.6615 12.9913 14.663 12.9234 14.663H12.2417C12.1442 14.663 12.0527 14.6455 11.9672 14.6104C11.8816 14.5753 11.8078 14.5257 11.7458 14.4614C11.6839 14.4 11.6351 14.327 11.5997 14.2423C11.5614 14.1575 11.5422 14.067 11.5422 13.9705Z" fill="#333333"/>
<path d="M3.72302 7.60261C3.51938 7.60261 3.30984 7.59238 3.0944 7.57194C2.88192 7.55444 2.6709 7.51786 2.46136 7.46235C2.25182 7.40979 2.04966 7.33678 1.85488 7.24326C1.6601 7.14976 1.47859 7.02851 1.31037 6.8795C1.14215 6.73341 0.996061 6.57126 0.872112 6.39303C0.751108 6.21772 0.650767 6.03073 0.571082 5.83206C0.491399 5.63338 0.430898 5.42593 0.38958 5.20972C0.351215 4.99352 0.332031 4.77293 0.332031 4.54795C0.332031 4.06878 0.408764 3.58524 0.562229 3.09731C0.718645 2.60938 0.948839 2.13752 1.25282 1.68172L2.24887 2.39171C2.18984 2.47059 2.12049 2.58892 2.0408 2.7467C1.96112 2.90447 1.88439 3.08416 1.81061 3.28576C1.73682 3.48736 1.67485 3.70211 1.62468 3.93C1.5745 4.15498 1.54942 4.37265 1.54942 4.58302C1.54942 4.82552 1.60402 5.04465 1.71322 5.2404C1.82536 5.43616 1.97293 5.60416 2.1559 5.7444C2.34184 5.88465 2.55432 5.99422 2.79338 6.0731C3.03538 6.15199 3.28624 6.19435 3.54594 6.20019H3.59021C3.78499 6.20019 3.97388 6.18267 4.15685 6.1476C4.35458 6.10962 4.54199 6.05411 4.71907 5.98107C4.89614 5.90802 5.05698 5.81891 5.2016 5.71372C5.34916 5.60855 5.47459 5.49022 5.57788 5.35874C5.68413 5.23018 5.76528 5.08994 5.82136 4.938C5.86563 4.80652 5.88776 4.67067 5.88776 4.53042V4.4603C5.88186 4.33467 5.85825 4.19296 5.81693 4.03519C5.77562 3.87742 5.72544 3.71672 5.66642 3.5531C5.61034 3.38656 5.54689 3.22294 5.47606 3.06225C5.40819 2.90155 5.34325 2.75401 5.28128 2.6196C5.22226 2.48229 5.17061 2.36542 5.12634 2.26899C5.08207 2.17258 5.05403 2.10684 5.04223 2.07178L6.24634 1.41C6.2552 1.42169 6.28028 1.47429 6.3216 1.56778C6.36586 1.66128 6.41752 1.78252 6.47653 1.93154C6.53851 2.07762 6.60344 2.24562 6.67132 2.43554C6.7392 2.62545 6.80265 2.82413 6.86168 3.03157C6.92365 3.23901 6.97677 3.44938 7.02104 3.66267C7.06531 3.87595 7.09335 4.07902 7.10515 4.27185C7.1081 4.29522 7.10958 4.32298 7.10958 4.35512V4.44277C7.10958 4.7028 7.08007 4.96138 7.02104 5.21849C6.96202 5.47561 6.87053 5.72103 6.74658 5.95477C6.62557 6.19143 6.47211 6.4091 6.28618 6.60778C6.1032 6.80938 5.88629 6.98322 5.63543 7.12931C5.38458 7.27832 5.09978 7.39374 4.78104 7.47553C4.46231 7.56027 4.10963 7.60261 3.72302 7.60261ZM3.72302 0.366943L4.70578 1.33988L3.72302 2.31282L2.74025 1.33988L3.72302 0.366943Z" fill="#333333"/>
</g>
<defs>
<clipPath id="clip0_380_4969">
<rect width="16" height="18" fill="white"/>
</clipPath>
</defs>
</svg>

